<svg id="Layer_1" data-name="Layer 1" xmlns="http://www.w3.org/2000/svg" viewBox="0 0 4000 4000"><defs><style>.cls-1{font-size:788.15px;stroke:#050505;stroke-miterlimit:10;font-family:Constantia;letter-spacing:0.2em;}</style></defs><path d="M1196,1968.08q0,345.09-133.41,489.38T668.81,2601.78q-233.49,0-369.44-142.39t-136-375.86v-50H413.54q0,343.8,255.27,343.79,134.7,0,206.53-75.68t71.84-320.7V689.14H1196Z"/><path d="M2714.21,2567.71h-236V968.07L1942,2567.71h-223.2L1182.55,968.07l-.68,1063.76-231.19,10.51-4.16-1355.2,429.76-.41,451.88,1334.6,399.32-1334.6,486.73.41Z"/><path d="M3881.91,2022.38q0,264.27-179.59,405.36t-522.1,141.11H2476V688.28h669.62q300.16,0,472.07,128.28T3789.55,1168q0,272-270.67,402.8,182.13,46.17,272.59,170T3881.91,2022.38ZM2724.83,1475.91H3143q206.52,0,304-66.06t97.5-220q0-138.54-94.93-208.46t-329.68-69.91h-395.1Zm0,869.73h452.83q446.42,0,446.41-323.26,0-168-103.27-245.65t-375.21-77.61H2724.83Z"/><path d="M1851.8,1216.09,1508,1721.51,1376.28,949.45,163.65,937.73V688.87l1149.58-2.14"/><text class="cls-1" transform="translate(112.65 3264.64)">EQUINE</text></svg>